<svg xmlns="http://www.w3.org/2000/svg" xmlns:xlink="http://www.w3.org/1999/xlink" height="48" width="48"><defs><linearGradient id="i"><stop offset="0" stop-color="#fed523"/><stop offset=".528" stop-color="#cdae24"/><stop offset="1" stop-color="#c8a716"/></linearGradient><linearGradient id="h"><stop offset="0" stop-color="#b39514"/><stop offset="1" stop-color="#f2c30a"/></linearGradient><linearGradient gradientTransform="matrix(.1609 0 0 .15992 28.949 483.216)" gradientUnits="userSpaceOnUse" y2="60.745" x2="25.086" y1="60.745" x1="-141.084" id="q" xlink:href="#a"/><linearGradient id="a"><stop offset="0" stop-color="#b29008"/><stop offset=".5" stop-color="#f6cc27"/><stop offset="1" stop-color="#cfa709"/></linearGradient><linearGradient y2="212.242" x2="125.403" y1="212.792" x1="96.044" gradientTransform="matrix(.1599 0 0 .22694 1.977 469.408)" gradientUnits="userSpaceOnUse" id="m" xlink:href="#b"/><linearGradient id="b"><stop offset="0" stop-color="#b39514"/><stop offset=".5" stop-color="#deb71a"/><stop offset="1" stop-color="#b39514"/></linearGradient><linearGradient y2="242.134" x2="180.116" y1="241.816" x1="146.491" spreadMethod="reflect" gradientTransform="matrix(.1609 0 0 .15992 -3.902 484.518)" gradientUnits="userSpaceOnUse" id="n" xlink:href="#c"/><linearGradient id="c"><stop offset="0" stop-color="#fed523"/><stop offset="1" stop-color="#c5a412"/></linearGradient><linearGradient y2="218.909" x2="145.12" y1="266.101" x1="153.914" gradientTransform="matrix(.1609 0 0 .15992 -3.902 484.518)" gradientUnits="userSpaceOnUse" id="o" xlink:href="#d"/><linearGradient id="d"><stop offset="0" stop-color="#b29008"/><stop offset="0" stop-color="#c09b08"/><stop offset="1" stop-color="#cfa709"/></linearGradient><linearGradient gradientTransform="matrix(.4244 0 0 .2637 -27.068 467.478)" y2="201.346" x2="120.026" y1="231.385" x1="120.852" gradientUnits="userSpaceOnUse" id="k" xlink:href="#e"/><linearGradient id="e"><stop offset="0" stop-color="#e8c734"/><stop offset=".125" stop-color="#e1c030"/><stop offset=".25" stop-color="#daba2c"/><stop offset="1" stop-color="#b39514"/></linearGradient><linearGradient gradientTransform="matrix(.4244 0 0 .2637 -27.068 467.478)" y2="225.386" x2="101.729" y1="215.176" x1="101.69" gradientUnits="userSpaceOnUse" id="l" xlink:href="#f"/><linearGradient id="f"><stop offset="0" stop-color="#b29008"/><stop offset=".236" stop-color="#c09b08"/><stop offset="1" stop-color="#f5ca0f"/></linearGradient><linearGradient y2="229.532" x2="102.489" y1="202.403" x1="101.69" gradientTransform="matrix(.42472 0 0 .24454 -27.097 474.083)" gradientUnits="userSpaceOnUse" id="j" xlink:href="#g"/><linearGradient id="g"><stop offset="0" stop-color="#614e04"/><stop offset="1" stop-color="#ac8a07"/></linearGradient><radialGradient gradientUnits="userSpaceOnUse" gradientTransform="matrix(1.90155 -.04691 .0163 .65291 -47.19 338.704)" r="21.305" fy="270.356" fx="31.847" cy="270.356" cx="31.847" id="p" xlink:href="#h"/><linearGradient gradientTransform="matrix(.5 0 .0166 .49441 -9.847 269.25)" gradientUnits="userSpaceOnUse" y2="490.125" x2="22.252" y1="443.633" x1="6.455" id="r" xlink:href="#i"/><linearGradient y2="490.125" x2="22.252" y1="443.633" x1="6.455" gradientTransform="matrix(-.5 0 -.02833 .49441 54.463 269.25)" gradientUnits="userSpaceOnUse" id="s" xlink:href="#i"/></defs><path d="M11.15 528.85c-.496-.541-.68-.956-.755-1.735l-.031-2.185h18.504l-.048 2.185c.026.482-.176 1.075-.599 1.573-3.404 3.824-14.412 3.058-17.07.162z" fill="#dab61a" stroke="url(#j)" stroke-linecap="round" transform="translate(4.428 -485.144)"/><path d="M28.186 526.234a9.25 4.125 0 0 1-12.022 2.274 9.25 4.125 0 0 1-5.141-5.353 9.25 4.125 0 0 1 11.987-2.31 9.25 4.125 0 0 1 5.223 5.337" fill="url(#k)" stroke="url(#l)" stroke-linecap="round" transform="translate(4.428 -485.144)"/><path fill="url(#m)" fill-rule="evenodd" d="M17.524 514.045h4.184v7.061h-4.184z" transform="translate(4.428 -485.144)"/><path d="M21.718 519.36c-.89.831-3.44.809-4.23.04-1.518 1.108-3.398 2.135-3.596 3.872-.162 1.424.777 1.852 2.01 2.352 2.126.863 5.302.721 7.187 0 1.332-.509 2.484-.695 2.237-2.34-.242-1.615-2.39-3.033-3.608-3.924z" fill="url(#n)" stroke="url(#o)" stroke-linecap="round" transform="translate(4.428 -485.144)"/><path d="M6.753 496.62c1.658 10.73 5.428 14.705 7.933 16.823 2.643 2.236 7.28 2.098 9.864 0 2.585-2.1 6.582-5.961 7.932-16.823z" fill="url(#p)" stroke="#b29008" stroke-linecap="round" transform="translate(4.428 -485.144)"/><path d="M10.56 10.984l-.046-2.885h27.06l-.07 2.885c-2.088 5.443-21.344 7.913-26.944 0z" fill="#dab61a"/><path d="M32.9 492.262a13.37 5.937 0 0 1-11.764 6.567 13.37 5.937 0 0 1-14.8-5.217 13.37 5.937 0 0 1 11.734-6.578 13.37 5.937 0 0 1 14.824 5.204" fill="url(#q)" fill-rule="evenodd" stroke="#fed523" transform="translate(4.428 -485.144)"/><path d="M4.18 490.081c-2.118-1.7-6.979-1.225-7.313 5.287-.204 3.986 1.236 5.473 3.064 6.998 2.342 1.952 5.064 2.921 7.721 4.483.952.606 2.053.995 1.968 1.979-.287.723-1.3.605-1.518.314l-.57.54c.419.694 1.902.863 2.597.24.922-.776.468-1.971-.248-2.669-1.597-1.446-3.907-2.34-5.872-3.51-2.534-1.399-4.856-3.152-5.689-5.376-1.056-4.096.815-6.974 2.126-7.604.854-.41 2.093-.25 2.757.22 1.142.807 1.665 1.717 1.904 4.096.101 1.67-1.21 1.17-1.816.744l-.508.706c.574.612.957.738 1.34.93 1.17.424 2.27-.582 2.065-1.952.024-3.092-.602-4.296-2.009-5.426z" fill="url(#r)" transform="translate(4.428 -485.144)"/><path d="M35.195 490.081c2.158-1.7 7.008-1.225 7.187 5.287.11 3.986-1.366 5.473-3.23 6.998-2.389 1.952-5.133 2.921-7.828 4.483-.966.606-2.076.995-2.014 1.979.27.723 1.285.605 1.51.314l.558.54c-.436.694-1.924.863-2.604.24-.903-.776-.421-1.971.312-2.669 1.631-1.446 3.962-2.34 5.955-3.51 2.567-1.399 4.93-3.152 5.817-5.376 1.153-4.096-.65-6.974-1.945-7.604-.845-.41-2.087-.25-2.763.22-1.161.807-1.705 1.717-2 4.096-.142 1.67 1.18 1.17 1.797.744l.492.706c-.59.612-.975.738-1.363.93-1.18.424-2.255-.582-2.019-1.952.05-3.092.705-4.296 2.138-5.426z" fill="url(#s)" transform="translate(4.428 -485.144)"/></svg>